<?xml version="1.0" encoding="utf-8"?>
<!-- Generator: Adobe Illustrator 26.0.3, SVG Export Plug-In . SVG Version: 6.00 Build 0)  -->
<svg version="1.1" id="Camada_1" xmlns="http://www.w3.org/2000/svg" xmlns:xlink="http://www.w3.org/1999/xlink" x="0px" y="0px"
	 viewBox="0 0 500 500" style="enable-background:new 0 0 500 500;" xml:space="preserve">
<style type="text/css">
	.st0{fill:#E81E63;}
</style>
<g>
	<path class="st0" d="M491.7,237.7c0.5,51.7-9.8,99.8-38,142.8c-24.6,37.4-57.4,65.9-97.2,86.3c-27.9,14.3-57.7,22.6-88.9,24.3
		c-67.1,3.6-127-15.6-178.1-59.9c-38-32.9-61.6-74.8-73.8-123.3c-7-27.6-9.1-55.5-6.1-83.6c3.4-32.3,13.5-62.7,29.2-91.2
		C59.8,95.1,89.1,65,126.3,42.6c24.8-14.9,51.7-24.7,80.1-30c55-10.3,106.9-0.9,156.7,23.6c3.1,1.5,1.3,2.4,0.1,3.6
		c-30.1,30.9-60.3,61.7-91,91.9c-15.2,14.9-30.5,29.8-45.6,44.8c-1.9,1.9-2.8,1.9-4.5-0.3c-7.5-9.5-15.7-18.4-27.2-23.1
		c-29.6-12.3-68.9-3.7-86.4,32.6c-17.5,36.5,1.1,79.1,39.9,90.7c26.6,8,50.6,2.3,70.2-17c39.3-38.9,77.9-78.4,116.7-117.7
		c2.5-2.6,3.7-2.4,6.2-0.1c23.5,21.7,45.5,44.7,68,67.4c5.1,5.2,10.3,10.3,15.9,14.9c2.2,1.8,2.6,3.4,0.4,5.5
		c-2.3,2.2-4.3,4.8-6.6,7c-22.4,20.8-43.2,43.3-65.9,64c-3.8,3.4-3.6,3.3-6.4-0.8c-7.2-10.5-17-17.5-29.1-21.4
		c-26-8.2-50-4.9-70.7,13.6c-12.2,10.9-18.1,25-19.5,41.2c-1.5,16.9,2.3,32.5,12.3,46.2c13.3,18.2,31.6,26.6,54.1,26.5
		c22.5-0.1,40.5-9.8,55.3-25.8c36-38.9,74.3-75.6,111.9-112.9C471.2,257.4,481.2,247.9,491.7,237.7z"/>
</g>
</svg>
